<svg>
    <symbol id="arrow" xmlns="http://www.w3.org/2000/svg" fill="none" viewBox="0 0 45 27">
        <path stroke="url(#a)" stroke-linecap="round" stroke-width="3" d="M2.12 24.13c11.96 1.33 34.04 2.2 35.95-20.91"/>
        <path stroke="url(#b)" stroke-linecap="round" stroke-width="3" d="m31.44 7.94 6.86-5.27L43 10"/>
        <defs>
            <linearGradient id="a" x1="21.54" x2="18.35" y1="-.43" y2="29.54" gradientUnits="userSpaceOnUse">
                <stop stop-color="#FFEC42"/>
                <stop offset="1" stop-color="#FFB800"/>
            </linearGradient>
            <linearGradient id="b" x1="39" x2="35.62" y1="1" y2="10.86" gradientUnits="userSpaceOnUse">
                <stop stop-color="#FFE600"/>
                <stop offset="1" stop-color="#FCCA4C"/>
            </linearGradient></defs>
    </symbol>
    <symbol id="code" xmlns="http://www.w3.org/2000/svg" fill="none" viewBox="0 0 75 75">
        <rect width="75" height="75" rx="10" fill="url(#paint0_linear_12790_455)"/>
        <g clip-path="url(#clip0_12790_455)">
            <path d="M37.5446 19.9316L22.3926 28.6817V46.1814L37.5446 54.9317L52.6969 46.1814V28.6817L37.5446 19.9316ZM31.6937 40.1901L30.2427 41.6414L26.0333 37.4317L30.2427 33.2222L31.6937 34.6733L28.9353 37.4317L31.6937 40.1901ZM36.0474 42.721L34.2118 41.8032L39.0421 32.1424L40.8777 33.0601L36.0474 42.721ZM44.8468 41.6411L43.3955 40.1901L46.1542 37.4317L43.3955 34.6733L44.8468 33.222L49.0563 37.4317L44.8468 41.6411Z" fill="white"/>
        </g>
        <defs>
            <linearGradient id="paint0_linear_12790_455" x1="0" y1="0" x2="55" y2="75" gradientUnits="userSpaceOnUse">
                <stop stop-color="#FE9AF4"/>
                <stop offset="1" stop-color="#EC4EDC"/>
            </linearGradient>
            <clipPath id="clip0_12790_455">
                <rect width="35" height="35" fill="white" transform="translate(20 20)"/>
            </clipPath>
        </defs>
    </symbol>
    <symbol id="marker" xmlns="http://www.w3.org/2000/svg" fill="none" viewBox="0 0 20 21">
        <path d="M8.85677 1.29643C9.54379 0.817823 10.4562 0.817823 11.1432 1.29643L12.8548 2.48883C13.0918 2.65393 13.3618 2.76573 13.6461 2.81657L15.6995 3.18371C16.5237 3.33107 17.1689 3.97626 17.3163 4.80048L17.6834 6.85393C17.7343 7.13824 17.8461 7.40817 18.0112 7.64516L19.2036 9.35677C19.6822 10.0438 19.6822 10.9562 19.2036 11.6432L18.0112 13.3548C17.8461 13.5918 17.7343 13.8618 17.6834 14.1461L17.3163 16.1995C17.1689 17.0237 16.5237 17.6689 15.6995 17.8163L13.6461 18.1834C13.3618 18.2343 13.0918 18.3461 12.8548 18.5112L11.1432 19.7036C10.4562 20.1822 9.54378 20.1822 8.85677 19.7036L7.14516 18.5112C6.90817 18.3461 6.63824 18.2343 6.35393 18.1834L4.30048 17.8163C3.47626 17.6689 2.83107 17.0237 2.68371 16.1995L2.31657 14.1461C2.26573 13.8618 2.15392 13.5918 1.98883 13.3548L0.796434 11.6432C0.317823 10.9562 0.317823 10.0438 0.796434 9.35677L1.98883 7.64516C2.15393 7.40817 2.26573 7.13824 2.31657 6.85393L2.68371 4.80048C2.83107 3.97626 3.47626 3.33107 4.30048 3.18371L6.35393 2.81657C6.63824 2.76573 6.90817 2.65392 7.14516 2.48883L8.85677 1.29643Z" fill="url(#paint0_linear_77_2965)"/>
        <path d="M14.1083 8.81554L9.50329 13.4203C9.16228 13.7613 8.60911 13.7613 8.26778 13.4203L5.89062 11.0429C5.54948 10.7019 5.54948 10.1486 5.89062 9.80748C6.23182 9.46628 6.78495 9.46628 7.126 9.80735L8.88572 11.5671L12.8728 7.58002C13.214 7.23882 13.7671 7.23908 14.1082 7.58002C14.4493 7.92116 14.4493 8.4742 14.1083 8.81554Z" fill="white"/>
        <defs>
            <linearGradient id="paint0_linear_77_2965" x1="0.8" y1="1.43333" x2="10" y2="20.5" gradientUnits="userSpaceOnUse">
                <stop stop-color="#8BF9D5"/>
                <stop offset="1" stop-color="#4EDAAC"/>
            </linearGradient>
        </defs>
    </symbol>
    <symbol id="security" xmlns="http://www.w3.org/2000/svg" fill="none" viewBox="0 0 75 75">
        <rect width="75" height="75" rx="10" fill="url(#paint0_linear_12790_454)"/>
        <g clip-path="url(#clip0_12790_454)">
            <path d="M37.4989 30.832C33.8216 30.832 30.8301 33.8236 30.8301 37.5005C30.8301 41.1778 33.8216 44.1693 37.4989 44.1693C41.1758 44.1693 44.1674 41.1778 44.1674 37.5005C44.1674 33.8236 41.1758 30.832 37.4989 30.832ZM41.4581 36.2447L36.6807 41.0221C36.4801 41.2227 36.2171 41.3231 35.9544 41.3231C35.6916 41.3231 35.4288 41.2229 35.2283 41.0221L33.4026 39.1964C33.0016 38.7956 33.0016 38.1454 33.4026 37.7443C33.8034 37.3433 34.4537 37.3433 34.8547 37.7443L35.9544 38.844L40.006 34.7926C40.4068 34.3915 41.057 34.3915 41.4581 34.7926C41.8592 35.1934 41.8592 35.8436 41.4581 36.2447Z" fill="white"/>
            <path d="M52.3673 29.4964L52.3662 29.4691C52.351 29.133 52.3408 28.7773 52.3347 28.3815C52.3061 26.4517 50.772 24.8554 48.842 24.7476C44.8178 24.523 41.7048 23.2108 39.045 20.6182L39.0223 20.5966C38.1547 19.8011 36.846 19.8011 35.9782 20.5966L35.9555 20.6182C33.2956 23.2108 30.1826 24.523 26.1585 24.7478C24.2287 24.8554 22.6943 26.4517 22.6657 28.3818C22.6599 28.7749 22.6494 29.1306 22.6342 29.4691L22.6326 29.5324C22.5544 33.6359 22.4572 38.7428 24.1656 43.3781C25.105 45.9272 26.5278 48.143 28.394 49.9644C30.5196 52.0386 33.3036 53.6854 36.6687 54.8587C36.7782 54.8969 36.8919 54.9279 37.0078 54.9511C37.1712 54.9837 37.3357 55 37.5002 55C37.6647 55 37.8295 54.9837 37.9926 54.9511C38.1085 54.9279 38.2231 54.8966 38.3331 54.8582C41.6942 53.6827 44.4753 52.0352 46.5989 49.9612C48.4644 48.1392 49.8871 45.9229 50.8273 43.3733C52.5422 38.7241 52.4452 33.6076 52.3673 29.4964ZM37.4997 46.223C32.69 46.223 28.7772 42.3103 28.7772 37.5006C28.7772 32.6908 32.69 28.7781 37.4997 28.7781C42.3091 28.7781 46.2221 32.6908 46.2221 37.5006C46.2221 42.3103 42.3091 46.223 37.4997 46.223Z" fill="white"/>
        </g>
        <defs>
            <linearGradient id="paint0_linear_12790_454" x1="15.5" y1="1.20749e-07" x2="37.5" y2="75" gradientUnits="userSpaceOnUse">

                <stop offset="1" stop-color="#FABC13"/>
            </linearGradient>
            <clipPath id="clip0_12790_454">
                <rect width="35" height="35" fill="white" transform="translate(20 20)"/>
            </clipPath>
        </defs>
    </symbol>
    <symbol id="settings" xmlns="http://www.w3.org/2000/svg" fill="none" viewBox="0 0 75 75">
        <rect width="75" height="75" rx="10" fill="url(#paint0_linear_12790_452)"/>
        <g clip-path="url(#clip0_12790_452)">
            <path d="M53.9516 41.3354L50.7345 38.8198C50.7753 38.4319 50.8103 37.9784 50.8103 37.4986C50.8103 37.0188 50.7768 36.5653 50.7345 36.1773L53.9545 33.6603C54.5525 33.1878 54.7158 32.3492 54.3351 31.6507L50.9897 25.8625C50.6324 25.2092 49.8493 24.8737 49.0545 25.1669L45.2584 26.6908C44.5308 26.1658 43.768 25.7225 42.9791 25.3681L42.4016 21.3417C42.3068 20.5775 41.6418 20 40.8558 20H34.1475C33.3614 20 32.6979 20.5775 32.6045 21.33L32.0256 25.3711C31.2614 25.7153 30.5104 26.1528 29.7506 26.6937L25.9443 25.1654C25.2311 24.8898 24.378 25.1989 24.0236 25.8494L20.6739 31.6448C20.2787 32.3128 20.442 33.1804 21.0531 33.6646L24.2701 36.1803C24.2191 36.6717 24.1943 37.099 24.1943 37.5001C24.1943 37.9011 24.2191 38.3284 24.2701 38.8213L21.0501 41.3384C20.4522 41.8123 20.2903 42.6509 20.6709 43.3479L24.0164 49.1361C24.3737 49.7879 25.1495 50.1262 25.9516 49.8317L29.7476 48.3078C30.4739 48.8313 31.2366 49.2746 32.0256 49.6304L32.6031 53.6554C32.6978 54.4225 33.3614 55 34.1489 55H40.8572C41.6433 55 42.3083 54.4225 42.4016 53.67L42.9805 49.6304C43.7447 49.2848 44.4943 48.8487 45.2555 48.3062L49.0618 49.8346C49.2455 49.906 49.4366 49.9425 49.6334 49.9425C50.1993 49.9425 50.7199 49.6333 50.9824 49.1521L54.3424 43.3333C54.7158 42.6508 54.5524 41.8123 53.9516 41.3354ZM37.5016 43.3333C34.2845 43.3333 31.6683 40.7171 31.6683 37.5C31.6683 34.2829 34.2845 31.6667 37.5016 31.6667C40.7186 31.6667 43.3349 34.2829 43.3349 37.5C43.3349 40.7171 40.7186 43.3333 37.5016 43.3333Z" fill="white"/>
        </g>
        <defs>
            <linearGradient id="paint0_linear_12790_452" x1="3" y1="2.5" x2="60.5" y2="75" gradientUnits="userSpaceOnUse">

                <stop offset="1" stop-color="#F14C4C"/>
            </linearGradient>
            <clipPath id="clip0_12790_452">
                <rect width="35" height="35" fill="white" transform="translate(20 20)"/>
            </clipPath>
        </defs>
    </symbol>
    <symbol id="user" xmlns="http://www.w3.org/2000/svg" fill="none" viewBox="0 0 75 75">
        <rect width="75" height="75" rx="10" fill="url(#paint0_linear_12790_453)"/>
        <g clip-path="url(#clip0_12790_453)">
            <path d="M37.2485 36.8596C39.5647 36.8596 41.5703 36.0289 43.2091 34.3899C44.8478 32.7511 45.6786 30.746 45.6786 28.4295C45.6786 26.1139 44.8478 24.1085 43.2088 22.4692C41.5698 20.8307 39.5644 20 37.2485 20C34.932 20 32.9269 20.8307 31.2881 22.4695C29.6494 24.1082 28.8184 26.1136 28.8184 28.4295C28.8184 30.746 29.6494 32.7514 31.2884 34.3901C32.9274 36.0286 34.9328 36.8596 37.2485 36.8596Z" fill="white"/>
            <path d="M52.001 46.9134C51.9537 46.2314 51.8581 45.4874 51.7174 44.7018C51.5754 43.9104 51.3924 43.1622 51.1735 42.4783C50.9473 41.7715 50.6397 41.0735 50.2594 40.4046C49.8648 39.7103 49.4012 39.1057 48.881 38.6083C48.3371 38.0878 47.6711 37.6694 46.901 37.3642C46.1336 37.0606 45.2831 36.9068 44.3733 36.9068C44.016 36.9068 43.6705 37.0534 43.0032 37.4878C42.5925 37.7556 42.1121 38.0654 41.5759 38.408C41.1174 38.7001 40.4963 38.9738 39.7292 39.2216C38.9807 39.4638 38.2207 39.5867 37.4706 39.5867C36.7205 39.5867 35.9608 39.4638 35.2116 39.2216C34.4452 38.9741 33.8241 38.7004 33.3661 38.4083C32.835 38.0689 32.3544 37.7591 31.9375 37.4875C31.271 37.0531 30.9252 36.9065 30.5679 36.9065C29.6579 36.9065 28.8077 37.0606 28.0405 37.3644C27.2709 37.6691 26.6047 38.0876 26.0602 38.6085C25.5403 39.1063 25.0765 39.7106 24.6824 40.4046C24.3024 41.0735 23.9948 41.7712 23.7683 42.4786C23.5496 43.1624 23.3667 43.9104 23.2246 44.7018C23.0839 45.4864 22.9883 46.2306 22.9411 46.9142C22.8946 47.5839 22.8711 48.2789 22.8711 48.981C22.8711 50.808 23.4519 52.287 24.5972 53.3778C25.7283 54.4542 27.225 55.0003 29.0451 55.0003H45.8978C47.7179 55.0003 49.214 54.4545 50.3454 53.3778C51.491 52.2878 52.0718 50.8085 52.0718 48.9807C52.0715 48.2755 52.0477 47.5799 52.001 46.9134Z" fill="white"/>
        </g>
        <defs>
            <linearGradient id="paint0_linear_12790_453" x1="3" y1="3.5" x2="37.5" y2="75" gradientUnits="userSpaceOnUse">

                <stop offset="1" stop-color="#4EDAAC"/>
            </linearGradient>
            <clipPath id="clip0_12790_453">
                <rect width="35" height="35" fill="white" transform="translate(20 20)"/>
            </clipPath>
        </defs>
    </symbol>
</svg>
