<svg width="60" height="60" fill="none" xmlns="http://www.w3.org/2000/svg"><circle cx="30" cy="30" r="29.5" stroke="#FFCA33"/><path d="M21.716 31.136a9.906 9.906 0 005.944 2.211v-2.013h4.68v2.013a9.906 9.906 0 005.944-2.21 9.906 9.906 0 003.276-5.001v-3.232h-4.138C37.145 19.05 33.922 16 30 16c-3.922 0-7.145 3.05-7.422 6.904H18.44v3.232a9.906 9.906 0 003.276 5zM30 17.642a5.807 5.807 0 015.774 5.262H24.226A5.807 5.807 0 0130 17.642z" fill="#FFCA33"/><path d="M43.166 35.35l-1.163-6.081a11.526 11.526 0 01-2.683 3.14 11.552 11.552 0 01-6.98 2.581v2.037h-4.68V34.99a11.553 11.553 0 01-6.98-2.58 11.53 11.53 0 01-2.683-3.141l-1.163 6.082a7.045 7.045 0 001.367 5.98 7.045 7.045 0 005.539 2.67h12.52a7.045 7.045 0 005.54-2.67 7.046 7.046 0 001.366-5.98z" fill="#FFCA33"/><path d="M29.302 32.976h1.396v2.408h-1.396v-2.408z" fill="#FFCA33"/></svg>