<svg width="60" height="60" fill="none" xmlns="http://www.w3.org/2000/svg"><circle cx="30" cy="30" r="29.5" fill="#FFCA33" stroke="#FFCA33"/><path d="M22.308 31.055a9.198 9.198 0 005.52 2.053V31.24h4.345v1.87a9.198 9.198 0 005.52-2.054 9.2 9.2 0 003.042-4.643v-3.001h-3.843C36.635 19.833 33.642 17 30 17c-3.642 0-6.635 2.833-6.892 6.41h-3.843v3.002a9.2 9.2 0 003.043 4.643zM30 18.525c2.801 0 5.11 2.15 5.362 4.886H24.638A5.393 5.393 0 0130 18.525z" fill="#333"/><path d="M42.226 34.97l-1.08-5.649a10.703 10.703 0 01-2.491 2.917 10.727 10.727 0 01-6.482 2.396v1.891h-4.346v-1.89a10.727 10.727 0 01-6.482-2.397 10.707 10.707 0 01-2.49-2.917l-1.081 5.648a6.543 6.543 0 001.27 5.553 6.542 6.542 0 005.143 2.479h11.626a6.542 6.542 0 005.144-2.479 6.542 6.542 0 001.269-5.553z" fill="#333"/><path d="M29.352 32.764h1.296V35h-1.296v-2.236z" fill="#333"/></svg>