<svg width="60" height="60" fill="none" xmlns="http://www.w3.org/2000/svg"><circle cx="30" cy="30" r="29.5" fill="#FFCA33" stroke="#FFCA33"/><path d="M31.217 43.992c-1.42-.086-2.722-.514-3.965-1.114a21.875 21.875 0 01-7.16-5.399c-1.48-1.685-2.693-3.541-3.492-5.598-.385-1-.65-2.028-.592-3.113.06-.686.326-1.257.829-1.714.562-.514 1.065-1.028 1.627-1.542.71-.686 1.598-.686 2.308 0l1.302 1.256 1.272 1.229c.74.714.74 1.57 0 2.285l-1.597 1.542c-.148.143-.148.229-.09.4.356.828.859 1.542 1.45 2.228 1.155 1.37 2.486 2.599 4.025 3.541.325.2.71.343 1.065.543.178.086.296.057.444-.086.533-.514 1.065-1.056 1.598-1.57.71-.686 1.598-.686 2.308 0 .858.828 1.746 1.656 2.604 2.513.71.714.71 1.571 0 2.257-.503.485-1.006.942-1.48 1.428-.65.742-1.48.97-2.456.914zm-2.544-12.768l-.09-.085c-3.076-3.342-2.929-8.455.386-11.654 3.432-3.313 9.024-3.313 12.457 0a8.308 8.308 0 010 12.025c-2.9 2.799-7.309 3.227-10.682 1.314l-.03-.029c-1.331.971-2.752 1.143-3.758 1a.332.332 0 01-.088-.629c.887-.4 1.48-1.256 1.805-1.942zm5.444-9.568c0 .77.651 1.4 1.45 1.4.77 0 1.42-.63 1.42-1.4 0-.771-.621-1.4-1.42-1.4-.799 0-1.45.628-1.45 1.4zm-1.095 2.685c.148.057.326.057.474.085.355.057.503.172.473.543v.171c-.148.857-.325 1.743-.473 2.6-.09.485-.178 1-.237 1.485-.118.742.621 1.428 1.213 1.485.355.057.71.057 1.036.057.74 0 1.36-.314 1.893-.828a.68.68 0 00.208-.343c.059-.2-.119-.343-.326-.257-.148.057-.266.143-.414.2a3.687 3.687 0 01-.533.143.392.392 0 01-.444-.286 1.306 1.306 0 01-.03-.485c.03-.343.12-.657.178-.972.178-1 .385-1.97.563-2.97a3.68 3.68 0 00.088-.8c0-.314-.207-.485-.532-.485h-2.722c-.119 0-.208 0-.326.028-.207.029-.296.143-.325.286-.03.143.03.257.236.343z" fill="#333"/></svg>