<svg width="40" height="40" fill="none" xmlns="http://www.w3.org/2000/svg"><circle cx="20" cy="20" r="19.5" fill="#fff" stroke="#F9FAFE"/><path d="M31.2 19.322c0 5.811-4.747 10.522-10.604 10.522a10.64 10.64 0 01-5.125-1.308L9.6 30.4l1.914-5.646a10.415 10.415 0 01-1.52-5.432C9.993 13.51 14.74 8.8 20.596 8.8c5.856.002 10.603 4.712 10.603 10.522zm-10.605-8.844c-4.916 0-8.914 3.968-8.914 8.847a8.75 8.75 0 001.698 5.185l-1.113 3.284 3.425-1.088a8.912 8.912 0 004.904 1.462c4.915 0 8.915-3.967 8.915-8.846.002-4.876-3.999-8.844-8.915-8.844zm5.356 11.268c-.067-.106-.24-.171-.5-.3-.258-.13-1.537-.754-1.775-.838-.24-.087-.412-.13-.586.128-.17.258-.67.839-.822 1.012-.152.173-.303.195-.563.067-.26-.13-1.098-.401-2.091-1.28-.773-.684-1.295-1.527-1.446-1.786-.152-.258-.015-.397.114-.525.116-.117.26-.302.39-.453.13-.15.173-.257.26-.43.085-.172.042-.322-.022-.452-.065-.13-.584-1.397-.802-1.914-.216-.515-.432-.43-.584-.43-.152 0-.325-.021-.498-.021a.951.951 0 00-.692.32c-.238.26-.91.883-.91 2.152 0 1.27.93 2.495 1.061 2.667.131.171 1.799 2.861 4.44 3.894 2.644 1.032 2.644.687 3.12.644.478-.044 1.539-.624 1.754-1.225.217-.604.217-1.122.152-1.23z" fill="#29AD1C"/></svg>