<svg width="40" height="40" fill="none" xmlns="http://www.w3.org/2000/svg"><circle cx="20" cy="20" r="19.5" fill="#fff" stroke="#F9FAFE"/><path d="M25.7 18.914c.021-2.402-2.08-4.603-4.682-4.908a3.691 3.691 0 01-.168-.025 2.496 2.496 0 00-.397-.042c-.533 0-.676.365-.713.583-.037.211-.002.39.103.528.177.234.488.276.737.309.074.01.143.019.2.031 2.339.51 3.126 1.31 3.511 3.567.01.055.014.123.018.195.017.27.052.832.672.832.051 0 .107-.005.165-.013.577-.086.559-.599.55-.846-.002-.069-.005-.135.002-.178a.246.246 0 00.002-.033z" fill="#7B519D"/><path d="M20.302 13.126c.07.004.135.009.19.017 3.84.575 5.605 2.347 6.095 6.116a1.9 1.9 0 01.01.224c.005.295.015.907.691.92h.021c.212 0 .38-.062.5-.185.211-.214.197-.532.185-.788-.003-.063-.006-.122-.005-.173.049-3.855-3.378-7.35-7.332-7.48-.016 0-.032 0-.048.003a.347.347 0 01-.047.002c-.04 0-.088-.003-.14-.007a3.13 3.13 0 00-.203-.008c-.63 0-.75.436-.765.695-.035.6.561.643.848.664zm6.1 11.004c-.082-.061-.167-.124-.245-.186-.42-.329-.866-.631-1.297-.924l-.268-.183c-.553-.378-1.05-.561-1.52-.561-.631 0-1.182.34-1.637 1.01-.202.298-.446.442-.748.442-.178 0-.38-.05-.601-.147-1.784-.788-3.057-1.995-3.786-3.59-.352-.77-.238-1.273.382-1.683.352-.232 1.007-.665.96-1.494-.052-.942-2.185-3.775-3.084-4.096a1.795 1.795 0 00-1.19-.004c-1.034.339-1.775.933-2.145 1.718-.357.76-.341 1.65.047 2.577 1.12 2.68 2.697 5.017 4.685 6.945 1.945 1.888 4.337 3.434 7.107 4.596.25.105.512.162.703.203.065.015.122.027.162.038a.328.328 0 00.07.01h.021c1.304 0 2.868-1.16 3.349-2.482.42-1.158-.348-1.73-.965-2.19zm-5.522-7.943c-.223.005-.688.016-.85.477-.077.215-.068.402.026.555.139.225.404.294.645.332.874.137 1.323.607 1.413 1.481.041.408.323.692.685.692a.7.7 0 00.081-.005c.435-.05.646-.361.627-.925.007-.588-.309-1.256-.847-1.787-.539-.534-1.189-.834-1.78-.82z" fill="#7B519D"/></svg>