<svg width="31" height="32" fill="none" xmlns="http://www.w3.org/2000/svg"><circle cx="15.5" cy="16" r="15.5" fill="url(#paint0_radial_151_626)"/><path d="M13.056 16.043a2.485 2.485 0 114.97-.001 2.485 2.485 0 01-4.97 0zm-1.344 0a3.828 3.828 0 107.656 0 3.828 3.828 0 00-7.656 0zm6.914-3.98a.894.894 0 10.895-.895.895.895 0 00-.895.895zM12.529 22.11c-.727-.033-1.122-.154-1.385-.257a2.317 2.317 0 01-.857-.557 2.3 2.3 0 01-.558-.857c-.102-.263-.223-.658-.256-1.385-.037-.785-.044-1.021-.044-3.012s.008-2.227.044-3.013c.033-.727.155-1.121.256-1.385.136-.348.297-.596.558-.857a2.29 2.29 0 01.857-.558c.263-.102.658-.223 1.385-.256.786-.036 1.021-.044 3.011-.044 1.99 0 2.227.008 3.013.044.727.033 1.122.155 1.385.256.348.135.596.297.857.558.261.26.422.51.558.857.102.263.223.658.256 1.385.036.786.044 1.022.044 3.013 0 1.99-.008 2.226-.044 3.012-.033.727-.154 1.122-.256 1.385a2.31 2.31 0 01-.558.857c-.26.26-.51.422-.857.557-.263.103-.658.224-1.385.257-.786.036-1.022.043-3.013.043-1.99 0-2.226-.007-3.011-.043zm-.062-13.478c-.794.036-1.336.162-1.81.346-.49.19-.905.445-1.32.86-.415.414-.67.83-.86 1.32-.185.474-.31 1.016-.346 1.81-.037.795-.046 1.049-.046 3.074 0 2.024.009 2.278.046 3.073.036.794.161 1.336.346 1.81.19.49.445.906.86 1.32.415.415.83.67 1.32.86.475.185 1.016.31 1.81.347.795.036 1.049.045 3.073.045 2.025 0 2.28-.009 3.074-.045.794-.037 1.336-.162 1.81-.347.49-.19.905-.445 1.32-.86.415-.414.67-.83.86-1.32.184-.474.311-1.016.347-1.81.036-.795.044-1.049.044-3.073 0-2.025-.008-2.28-.044-3.074-.037-.794-.163-1.336-.347-1.81a3.665 3.665 0 00-.86-1.32 3.647 3.647 0 00-1.32-.86c-.474-.184-1.016-.31-1.81-.346-.794-.037-1.048-.046-3.073-.046-2.024 0-2.279.009-3.074.046z" fill="#fff"/><path d="M13.056 16.043a2.485 2.485 0 114.97-.001 2.485 2.485 0 01-4.97 0zm-1.344 0a3.828 3.828 0 107.656 0 3.828 3.828 0 00-7.656 0zm6.914-3.98a.894.894 0 10.895-.895.895.895 0 00-.895.895zM12.529 22.11c-.727-.033-1.122-.154-1.385-.257a2.317 2.317 0 01-.857-.557 2.3 2.3 0 01-.558-.857c-.102-.263-.223-.658-.256-1.385-.037-.785-.044-1.021-.044-3.012s.008-2.227.044-3.013c.033-.727.155-1.121.256-1.385.136-.348.297-.596.558-.857a2.29 2.29 0 01.857-.558c.263-.102.658-.223 1.385-.256.786-.036 1.021-.044 3.011-.044 1.99 0 2.227.008 3.013.044.727.033 1.122.155 1.385.256.348.135.596.297.857.558.261.26.422.51.558.857.102.263.223.658.256 1.385.036.786.044 1.022.044 3.013 0 1.99-.008 2.226-.044 3.012-.033.727-.154 1.122-.256 1.385a2.31 2.31 0 01-.558.857c-.26.26-.51.422-.857.557-.263.103-.658.224-1.385.257-.786.036-1.022.043-3.013.043-1.99 0-2.226-.007-3.011-.043zm-.062-13.478c-.794.036-1.336.162-1.81.346-.49.19-.905.445-1.32.86-.415.414-.67.83-.86 1.32-.185.474-.31 1.016-.346 1.81-.037.795-.046 1.049-.046 3.074 0 2.024.009 2.278.046 3.073.036.794.161 1.336.346 1.81.19.49.445.906.86 1.32.415.415.83.67 1.32.86.475.185 1.016.31 1.81.347.795.036 1.049.045 3.073.045 2.025 0 2.28-.009 3.074-.045.794-.037 1.336-.162 1.81-.347.49-.19.905-.445 1.32-.86.415-.414.67-.83.86-1.32.184-.474.311-1.016.347-1.81.036-.795.044-1.049.044-3.073 0-2.025-.008-2.28-.044-3.074-.037-.794-.163-1.336-.347-1.81a3.665 3.665 0 00-.86-1.32 3.647 3.647 0 00-1.32-.86c-.474-.184-1.016-.31-1.81-.346-.794-.037-1.048-.046-3.073-.046-2.024 0-2.279.009-3.074.046z" fill="#fff"/><defs><radialGradient id="paint0_radial_151_626" cx="0" cy="0" r="1" gradientUnits="userSpaceOnUse" gradientTransform="translate(4.876 31.081) scale(37.0955)"><stop stop-color="#FEC053"/><stop offset=".327" stop-color="#F2203E"/><stop offset=".648" stop-color="#B729A8"/><stop offset="1" stop-color="#5342D6"/></radialGradient></defs></svg>