<svg width="60" height="60" fill="none" xmlns="http://www.w3.org/2000/svg"><circle cx="30" cy="30" r="29.5" fill="#FFCA33" stroke="#FFCA33"/><path d="M33.059 17.448v4.14h4.14l-4.14-4.14z" fill="#333"/><path d="M30.765 31.53a6.89 6.89 0 016.882-6.883v-1.53H31.53V17H20.06v22.941h17.588v-1.53a6.89 6.89 0 01-6.882-6.882zm-7.647-9.942h6.117v1.53h-6.117v-1.53zm6.117 13.765h-6.117v-1.53h6.117v1.53zm0-3.059h-6.117v-1.53h6.117v1.53zm0-3.059h-6.117v-1.53h6.117v1.53zM30 26.177h-6.882v-1.53H30v1.53z" fill="#333"/><path d="M37.647 26.177a5.36 5.36 0 00-5.353 5.352 5.359 5.359 0 005.353 5.353A5.359 5.359 0 0043 31.53a5.359 5.359 0 00-5.353-5.354zm-.54 7.74l-2.07-2.07 1.08-1.082.99.988 2.517-2.518 1.082 1.082-3.6 3.6zM18.53 18.53H17V43h19.118v-1.53H18.529V18.53z" fill="#333"/></svg>