<svg width="60" height="60" fill="none" xmlns="http://www.w3.org/2000/svg"><circle cx="30" cy="30" r="29.5" stroke="#FFCA33"/><path d="M29.121 29.113L17.242 24.17a.61.61 0 00-.841.56v4.334h2.267a.61.61 0 010 1.219h-3.12a.61.61 0 000 1.219h.853v.53h6.351a.61.61 0 010 1.22H13.61a.61.61 0 000 1.218h2.803V35h3.401a.61.61 0 010 1.22h-5.138a.61.61 0 000 1.218h1.725v.988a.61.61 0 00.366.61l11.885 4.918a.61.61 0 00.841-.56v-13.72a.61.61 0 00-.372-.561zm14.318-4.889a.61.61 0 00-.573-.054l-11.873 4.943a.61.61 0 00-.378.56v13.72a.61.61 0 00.84.561l11.88-4.919a.61.61 0 00.378-.56V24.73a.61.61 0 00-.274-.506zm-9.905 16.939a1.334 1.334 0 01-.207.694c-.218.346-.603.55-1.012.537-.075.006-.15.006-.225 0a1.268 1.268 0 01-.256-2.39c.153-.06.316-.092.481-.09a1.217 1.217 0 011.22 1.218v.03zm2.633-.488a1.158 1.158 0 01-1.115.799c-.17 0-.337-.033-.494-.098a1.219 1.219 0 01-.725-1.182 1.219 1.219 0 112.438 0c-.005.165-.04.328-.104.481zm5.992-18.845L37.557 20l-1.579.677-10.014 4.297-1.56.652 5.418 2.255c.15.063.32.063.47 0L42.17 22.94a.61.61 0 00.372-.55.61.61 0 00-.384-.56zm-11.874-4.786a.61.61 0 00-.457 0L17.95 21.83a.61.61 0 000 1.128h-.006l4.919 2.06 1.56-.67 9.996-4.31 1.579-.682-5.712-2.31z" fill="#FFCA33"/><path d="M32.346 40.499h-.03a.64.64 0 10.609.64.61.61 0 00-.579-.64zm2.737-.945h-.031a.64.64 0 10.61.64.61.61 0 00-.579-.64z" fill="#FFCA33"/></svg>