<svg width="40" height="40" fill="none" xmlns="http://www.w3.org/2000/svg"><circle cx="20" cy="20" r="20" fill="#7360F2"/><path d="M27.215 12.455c-.504-.465-2.54-1.943-7.072-1.963 0 0-5.346-.322-7.952 2.068-1.45 1.451-1.96 3.574-2.014 6.206-.054 2.633-.124 7.565 4.63 8.903h.005l-.003 2.04s-.03.827.514.995c.658.205 1.044-.423 1.673-1.1.345-.372.82-.918 1.18-1.335 3.251.274 5.752-.352 6.037-.444.656-.213 4.371-.69 4.976-5.622.623-5.083-.302-8.299-1.974-9.748zm.55 9.384c-.51 4.118-3.523 4.377-4.078 4.555-.237.076-2.433.623-5.196.442 0 0-2.058 2.483-2.7 3.129-.101.101-.219.142-.298.122-.11-.027-.14-.159-.14-.35l.018-3.391c-.002 0 0 0 0 0-4.022-1.117-3.788-5.316-3.742-7.514.046-2.198.459-4 1.685-5.21 2.204-1.997 6.745-1.699 6.745-1.699 3.835.017 5.672 1.172 6.098 1.559 1.415 1.21 2.136 4.11 1.609 8.356z" fill="#fff"/><path fill-rule="evenodd" clip-rule="evenodd" d="M20.22 17.054a.256.256 0 01.27-.243c.53.028.97.188 1.283.512.312.323.465.774.492 1.316a.256.256 0 11-.512.025c-.023-.464-.15-.78-.349-.985-.197-.204-.498-.333-.94-.356a.256.256 0 01-.243-.27z" fill="#fff"/><path fill-rule="evenodd" clip-rule="evenodd" d="M19.832 15.673a.256.256 0 01.274-.237c1.077.079 1.944.447 2.575 1.136.624.682.921 1.53.9 2.526a.256.256 0 11-.513-.011c.019-.878-.24-1.595-.765-2.17-.525-.572-1.258-.898-2.234-.97a.256.256 0 01-.237-.274z" fill="#fff"/><path fill-rule="evenodd" clip-rule="evenodd" d="M19.38 14.36c0-.141.116-.255.258-.254 1.487.01 2.745.505 3.755 1.49 1.018.992 1.521 2.343 1.534 4.021a.256.256 0 11-.513.004c-.012-1.572-.48-2.781-1.38-3.658-.907-.886-2.035-1.335-3.4-1.345a.256.256 0 01-.255-.258z" fill="#fff"/><path d="M20.528 22.085s.36.03.554-.208l.378-.476c.183-.236.623-.387 1.055-.146.323.184.636.384.94.6.286.21.872.7.874.7.279.235.343.581.153.946l-.001.008c-.21.362-.476.69-.788.969-.003.002-.003.004-.007.005-.271.227-.538.356-.8.387a1.06 1.06 0 01-.457-.045l-.007-.012c-.404-.114-1.077-.399-2.198-1.017a13.084 13.084 0 01-1.847-1.22 9.671 9.671 0 01-.83-.737l-.028-.028-.028-.028-.028-.028-.028-.028a9.689 9.689 0 01-.737-.83 13.103 13.103 0 01-1.22-1.846c-.618-1.122-.903-1.795-1.017-2.198l-.012-.01a1.065 1.065 0 01-.045-.456c.033-.261.162-.528.387-.8.002-.003.004-.003.005-.007.28-.312.607-.578.97-.787l.008-.002c.365-.19.71-.125.946.152.002.002.49.588.7.874.215.304.415.618.6.941.24.431.09.872-.146 1.054l-.476.379c-.24.194-.209.554-.209.554s.705 2.668 3.339 3.34z" fill="#fff"/></svg>